<svg width="14" height="14" viewBox="0 0 14 14" fill="none" xmlns="http://www.w3.org/2000/svg"><path fill-rule="evenodd" clip-rule="evenodd" d="M1.66329 6.18799c0-2.57733 2.08934-4.66667 4.66667-4.66667s4.66664 2.08934 4.66664 4.66667c0 1.25727-.4972 2.39842-1.30567 3.23755a.67217.67217 0 0 0-.06574.05772.67185.67185 0 0 0-.05771.06572c-.83913.80852-1.98026 1.30572-3.23752 1.30572-2.57733 0-4.66667-2.08938-4.66667-4.66671Zm8.41181 4.68791c-1.02648.8211-2.32848 1.3121-3.74514 1.3121-3.31371 0-6-2.6863-6-6.00001 0-3.31371 2.68629-6 6-6s6.00004 2.68629 6.00004 6c0 1.41668-.491 2.71869-1.3121 3.74514l2.4501 2.45017c.2604.2603.2604.6824 0 .9428-.2603.2603-.6825.2603-.9428 0l-2.4501-2.4502Z" fill="#2D3440"/></svg>
