<svg width="14" height="14" fill="none" xmlns="http://www.w3.org/2000/svg"><path d="M12.8909 1.99447a3.666639 3.666639 0 0 0-1.1898-.79528c-.4449-.18437-.9219-.279268-1.4035-.279268-.4817 0-.95864.094898-1.40361.279268a3.666831 3.666831 0 0 0-1.18977.79528l-.70666.70667-.70667-.70667C5.6031 1.30668 4.67025.920278 3.69756.920278c-.97269 0-1.90554.386402-2.59334 1.074192C.416428 2.68227.03003 3.61512.03003 4.58781c0 .97268.386398 1.90553 1.07419 2.59333l.70667.70667 5.18667 5.18669 5.18664-5.18669.7067-.70667c.3407-.3405.6109-.74479.7953-1.18976.1843-.44498.2792-.92192.2792-1.40357 0-.48166-.0949-.9586-.2792-1.40357-.1844-.44498-.4546-.84926-.7953-1.18977Z" fill="#2D3440"/></svg>