<svg width="12" height="24" viewBox="0 0 12 24" fill="none" xmlns="http://www.w3.org/2000/svg"><path d="M6 0A6.007 6.007 0 0 0 .0424 5.2941H0v11.9153h12V5.2941h-.0424A6.007 6.007 0 0 0 6 0Zm4.5882 15.7976H1.4118V9.2894a1.2636 1.2636 0 0 0 1.087.4518c.9106 0 1.5035-.5083 1.5035-1.1506v-.6141a.6073.6073 0 0 1 .851-.6198.6072.6072 0 0 1 .3561.6198v2.3223a1.3205 1.3205 0 0 0 .4574.9829 1.3192 1.3192 0 0 0 1.039.3089 1.3132 1.3132 0 0 0 1.4965-1.2353v-1.56a.953.953 0 1 1 1.8989 0 .2812.2812 0 0 0 0 .0635.797.797 0 0 0 .4729.6283V15.84l.0141-.0424ZM4.9412 22.9412a1.0589 1.0589 0 0 0 2.1176 0v-5.0259H4.9412v5.0259Z" fill="#2D3440"/></svg>
