<svg width="16" height="16" viewBox="0 0 16 16" fill="none" xmlns="http://www.w3.org/2000/svg"><path fill-rule="evenodd" clip-rule="evenodd" d="M9 1.66667C9 1.29848 9.29848 1 9.66667 1h2.66663a1.9997 1.9997 0 0 1 1.4142.58579A1.9999 1.9999 0 0 1 14.3333 3v9.3333c0 .5305-.2107 1.0392-.5858 1.4142-.375.3751-.8837.5858-1.4142.5858H9.66667c-.36819 0-.66667-.2984-.66667-.6666 0-.3682.29848-.6667.66667-.6667h2.66663c.1768 0 .3464-.0702.4714-.1953A.66635.66635 0 0 0 13 12.3333V3a.66637.66637 0 0 0-.1953-.4714.66662.66662 0 0 0-.4714-.19527H9.66667C9.29848 2.33333 9 2.03486 9 1.66667ZM5.86189 3.86193c.26035-.26035.68246-.26035.94281 0l3.3291 3.3291a.6892.6892 0 0 1 .0486.05313.6624.6624 0 0 1 .0804.12379c.0451.08986.0705.19132.0705.29872 0 .10862-.0259.21118-.072.30179a.6671.6671 0 0 1-.0737.11432.66753.66753 0 0 1-.0541.05978L6.8047 11.4714c-.26035.2604-.68246.2604-.94281 0-.26035-.2603-.26035-.6825 0-.9428l2.19526-2.19527H1.66667C1.29848 8.33333 1 8.03486 1 7.66667S1.29848 7 1.66667 7h6.39048L5.86189 4.80474c-.26035-.26035-.26035-.68246 0-.94281Z" fill="#2D3440"/></svg>