<svg width="24" height="24" fill="none" xmlns="http://www.w3.org/2000/svg"><path d="M20.0618 7.715a9.072 9.072 0 0 0 .9129-3.549 9.0374 9.0374 0 0 0-.5696-3.6157.7536.7536 0 0 0-.2526-.3589.7946.7946 0 0 0-.4151-.165.8028.8028 0 0 0-.4404.0836.7682.7682 0 0 0-.32.3044c-.9912 1.7138-3.1217 4.477-4.6826 4.6054h-.0702a13.0052 13.0052 0 0 0-2.1774-.2265 13.0618 13.0618 0 0 0-2.1852.2265H9.807C8.2462 4.899 6.0844 2.1358 5.0855.4219A.7661.7661 0 0 0 4.767.0966a.8022.8022 0 0 0-.881.0779.7532.7532 0 0 0-.2521.3758 8.997 8.997 0 0 0-.5912 3.6082 9.026 9.026 0 0 0 .8955 3.549C2.5803 7.8736.8556 8.2964.2312 9.361A1.6123 1.6123 0 0 0 0 10.1914c0 .2917.0798.5782.2312.8305.1788.3084.4449.5611.767.7283a1.9737 1.9737 0 0 0 1.0514.2154 5.6793 5.6793 0 0 0 1.8886-.3624 6.3365 6.3365 0 0 0 .1015 1.2155 25.8296 25.8296 0 0 0 1.3657 3.9259c.1483.3549.3122.755.398.9966a10.9606 10.9606 0 0 0-.6009 1.8724c-.037.4521.0213.9067.1716 1.3364.1503.4296.3893.8251.7025 1.1625C7.2082 23.3658 9.1983 24 12.0234 24c2.8251 0 4.823-.6342 5.9468-1.8875a3.2918 3.2918 0 0 0 .7052-1.1617 3.2142 3.2142 0 0 0 .1689-1.3372 10.9341 10.9341 0 0 0-.5931-1.8724c.0858-.2416.2497-.6342.3902-.9966a24.4619 24.4619 0 0 0 1.3657-3.9259 5.8427 5.8427 0 0 0 .1093-1.2155 5.6706 5.6706 0 0 0 1.8262.3624 1.99 1.99 0 0 0 1.0545-.2158c.3233-.167.5909-.4195.7717-.7279A1.613 1.613 0 0 0 24 10.1914c0-.2917-.0798-.5782-.2312-.8305-.6166-1.0268-2.3413-1.4797-3.707-1.6458Zm-.7414-5.013c.2814 1.5788.0066 3.2033-.7805 4.613a8.2928 8.2928 0 0 0-.6243-.657 5.6148 5.6148 0 0 0-1.4906-.9512c1.1256-.8447 2.1033-1.8593 2.8954-3.0048Zm-14.6017 0c.7842 1.1535 1.7598 2.1738 2.8875 3.02a5.1115 5.1115 0 0 0-1.475.9512 7.977 7.977 0 0 0-.6321.6568c-.7894-1.4143-1.0643-3.0443-.7804-4.628ZM1.6438 10.297c-.0702-.1208-.0468-.1585 0-.1887.1795-.2945 1.0848-.755 2.8173-.9287a9.602 9.602 0 0 0-.2341.6644c-1.0146.5058-2.3725.8229-2.5832.453Zm16.8259 2.2649a24.9832 24.9832 0 0 1-1.2643 3.6315 14.7028 14.7028 0 0 0-.5385 1.4118l-.0468.2341.0858.2114c.2469.5756.4478 1.1688.601 1.7742a1.7535 1.7535 0 0 1-.1194.6983 1.7966 1.7966 0 0 1-.3879.6002c-.5619.6267-1.8418 1.3665-4.7684 1.3665-2.9266 0-4.2065-.7549-4.7684-1.3665-.337-.3527-.5188-.8184-.5072-1.2985a12.0772 12.0772 0 0 1 .6087-1.7742l.0858-.2114-.0546-.2341a11.9817 11.9817 0 0 0-.5307-1.4194 24.3134 24.3134 0 0 1-1.2799-3.6541 5.2527 5.2527 0 0 1 .2124-2.599c.2883-.8368.7834-1.5929 1.4421-2.2026 1.1785-1.1476 3.8475-1.4043 4.7762-1.4119.9287-.0075 3.5431.2567 4.7918 1.427.6628.604 1.1613 1.3567 1.4512 2.1917.29.835.3625 1.7263.2111 2.5948v.0302Zm3.9021-2.2649c-.2029.3624-1.5608.0528-2.5286-.4454-.0624-.2265-.1404-.4455-.2263-.672 1.7169.1737 2.6144.6342 2.7861.9287.039.0302.0547.0679-.0156.1887h-.0156Z" fill="#2D3440"/></svg>