<svg width="14" height="24" viewBox="0 0 14 24" fill="none" xmlns="http://www.w3.org/2000/svg"><path d="M13.9932 13.8638C13.6882 7.0573 7.7571.4658 7.4927.1791h-.0339L7.3775.086 7.2893.0287h-.3795L6.781 0h-.034l-.122.086-.0745.0645h-.0339C6.2522.4657.3211 7.0645.0026 13.8638a1.1213 1.1213 0 0 0 0 .1505v.7809c.2575 7.3797 6.7784 9.1852 6.8326 9.1995h.1694a.6864.6864 0 0 0 .1695 0c.061 0 6.5751-1.8556 6.8259-9.1995v-.7809c0-.0502-.0068-.1004-.0068-.1505ZM1.792 11.349c1.354 1.23 2.8848 2.2241 4.5348 2.9447v3.2599c-1.6607-.8669-4.2162-2.4073-4.9686-3.7615.061-.8268.1996-1.6452.4135-2.4431h.0203Zm1.3557-3.654c.8866.9788 1.9743 1.729 3.1791 2.1923v2.823c-1.5145-.6757-2.8945-1.6481-4.067-2.866.2578-.7333.5543-1.451.888-2.1494Zm8.6154 2.1494c-1.1721 1.2185-2.5521 2.191-4.067 2.8659v-2.823c1.195-.4672 2.2731-1.2172 3.1519-2.1924.342.6885.6475 1.3965.9151 2.1208v.0287Zm-4.067-1.476V2.6366a32.4219 32.4219 0 0 1 2.4741 3.7114c-.6538.8785-1.5105 1.5645-2.4877 1.9918l.0135.0286Zm0 9.1996v-3.2743c1.6563-.7142 3.194-1.7035 4.5551-2.9304.2076.801.3393 1.6218.3931 2.4503-.7456 1.3327-3.301 2.8659-4.9618 3.7257l.0135.0287ZM6.3403 8.3684C5.3587 7.9357 4.501 7.2392 3.8527 6.348a32.4423 32.4423 0 0 1 2.4741-3.7472l.0136 5.7676Zm-4.8398 7.6878c1.4825 1.2313 3.1036 2.2637 4.8262 3.0737v3.1525c-1.2324-.5293-2.3197-1.3764-3.1627-2.4639-.843-1.0876-1.415-2.3811-1.6635-3.7623Zm6.1819 6.2333v-3.1668c1.724-.8041 3.3456-1.8344 4.8262-3.0665-.238 1.3865-.8059 2.6861-1.6502 3.7766-.8443 1.0905-1.9373 1.9359-3.176 2.4567Z" fill="#2D3440"/></svg>
