<svg width="14" height="24" viewBox="0 0 14 24" fill="none" xmlns="http://www.w3.org/2000/svg"><path d="M8.3917 3.8021c0-1.0084-.3688-1.9755-1.0252-2.6885C6.7103.4006 5.82 0 4.8918 0c-.9283 0-1.8185.4006-2.4749 1.1136-.6564.713-1.0251 1.6801-1.0251 2.6885v11.0661C.4944 15.863-.0056 17.202 0 18.5948c-.0024.8919.199 1.7706.5862 2.5571.3872.7866.948 1.4565 1.6323 1.9496.6842.4931 1.4703.7941 2.288.8758.8176.0818 1.6411-.0582 2.3967-.4073.7556-.3492 1.4196-.8966 1.9324-1.5931.5129-.6966.8586-1.5206 1.0061-2.398a5.8352 5.8352 0 0 0-.1608-2.6295c-.253-.8485-.696-1.6156-1.2892-2.2323V3.8021Zm.1252 14.7927c.007.6596-.1412 1.3102-.4307 1.89-.2896.5798-.7107 1.0697-1.2235 1.423-.5128.3533-1.1002.5583-1.7065.5957-.6062.0373-1.2112-.0943-1.7575-.3823-.5462-.2881-1.0156-.7231-1.3636-1.2636-.348-.5406-.5631-1.1688-.6247-1.8251-.0617-.6562.032-1.3187.2724-1.9245.2403-.6057.6191-1.1348 1.1005-1.5368V3.8021c0-.6074.2222-1.19.6176-1.6195.3954-.4295.9316-.6708 1.4908-.6708.5591 0 1.0954.2413 1.4908.6708S7 3.1946 7 3.802v11.6255c.4696.3555.853.8293 1.1171 1.3809.2642.5516.4014 1.1645.3998 1.7863Z" fill="#2D3440"/><path d="M5.6501 16.2288V3.855c0-.2005-.0733-.3927-.2038-.5345-.1305-.1417-.3075-.2214-.492-.2214s-.3615.0797-.492.2214c-.1305.1418-.2038.334-.2038.5345v12.3738c-.4643.1783-.8556.5292-1.1047.9906-.2492.4614-.3402 1.0036-.2569 1.5309.0833.5272.3354 1.0055.712 1.3503.3764.3447.853.5339 1.3454.5339.4924 0 .969-.1892 1.3455-.5339.3765-.3448.6286-.8231.712-1.3503.0832-.5273-.0078-1.0695-.257-1.5309-.2491-.4614-.6404-.8123-1.1047-.9906ZM14 2.9555H9.825v1.5118H14V2.9555ZM14 5.979H9.825v1.5118H14V5.979ZM14 9.0026H9.825v1.5117H14V9.0026ZM14 12.0261H9.825v1.5118H14v-1.5118Z" fill="#2D3440"/></svg>
