<svg width="16" height="16" viewBox="0 0 16 16" fill="none" xmlns="http://www.w3.org/2000/svg"><path fill-rule="evenodd" clip-rule="evenodd" d="M3.80812 6.19526c-.26035-.26035-.68246-.26035-.94281 0-.26035.26035-.26035.68246 0 .94281l4.66034 4.66033a.92223.92223 0 0 0 .00624.0063c.1307.1307.30215.1958.47345.1953.16996-.0005.33977-.0656.46944-.1953a.25921.25921 0 0 0 .00621-.0062l4.66041-4.66043c.2603-.26035.2603-.68246 0-.94281-.2604-.26035-.6825-.26035-.9428 0L8.00334 10.3905 3.80812 6.19526Z" fill="#2D3440"/></svg>