<svg width="16" height="16" viewBox="0 0 16 16" fill="none" xmlns="http://www.w3.org/2000/svg">
<path fill-rule="evenodd" clip-rule="evenodd" d="M8.00027 2.33333C4.87051 2.33333 2.33333 4.87051 2.33333 8.00027C2.33333 11.13 4.87051 13.6672 8.00027 13.6672C11.13 13.6672 13.6672 11.13 13.6672 8.00027C13.6672 4.87051 11.13 2.33333 8.00027 2.33333ZM1 8.00027C1 4.13413 4.13413 1 8.00027 1C11.8664 1 15.0005 4.13413 15.0005 8.00027C15.0005 11.8664 11.8664 15.0005 8.00027 15.0005C4.13413 15.0005 1 11.8664 1 8.00027ZM8 7.33333C8.36819 7.33333 8.66667 7.63181 8.66667 8V10.5334C8.66667 10.9016 8.36819 11.2001 8 11.2001C7.63181 11.2001 7.33333 10.9016 7.33333 10.5334V8C7.33333 7.63181 7.63181 7.33333 8 7.33333ZM8 4.80013C7.63181 4.80013 7.33333 5.09861 7.33333 5.4668C7.33333 5.83499 7.63181 6.13346 8 6.13346H8.00667C8.37486 6.13346 8.67333 5.83499 8.67333 5.4668C8.67333 5.09861 8.37486 4.80013 8.00667 4.80013H8Z" fill="#2D3440"/>
</svg>
