<svg width="16" height="16" fill="none" xmlns="http://www.w3.org/2000/svg"><path fill-rule="evenodd" clip-rule="evenodd" d="M1.61532 1.61526a.96189.96189 0 0 1 .6803-.28193h8.95888c.3682 0 .6667-.29847.6667-.66666 0-.3682-.2985-.66667-.6667-.66667H2.29562a2.2952 2.2952 0 0 0-1.6233.67265 2.29658 2.29658 0 0 0-.67226 1.62359V13.7033c0 .6089.24178 1.1929.67225 1.6236a2.29541 2.29541 0 0 0 1.62331.6726H13.6978c.6089 0 1.1929-.242 1.6233-.6726a2.29664 2.29664 0 0 0 .6723-1.6236V7.99976c0-.36819-.2985-.66666-.6667-.66666-.3682 0-.6666.29847-.6666.66666v5.70354c0 .2555-.1015.5004-.282.681a.96195.96195 0 0 1-.6803.2819H2.29562a.96207.96207 0 0 1-.6803-.2819.96334.96334 0 0 1-.28193-.681V2.29624a.96328.96328 0 0 1 .28193-.68098Zm14.20138.32514c.2532-.2673.2418-.68925-.0255-.94247-.2673-.25321-.6893-.2418-.9425.0255L7.61408 8.66042l-1.8316-1.93347c-.25321-.26729-.67516-.27871-.94246-.0255-.2673.25322-.27871.67517-.0255.94247L7.1301 10.0883a.66668.66668 0 0 0 .48398.2082.66668.66668 0 0 0 .48398-.2082l7.71864-8.1479Z" fill="#2D3440"/></svg>